<?xml version="1.0" encoding="utf-8" ?>
<svg xmlns="http://www.w3.org/2000/svg" xmlns:xlink="http://www.w3.org/1999/xlink" width="512" height="512">
	<path fill="#F12636" d="M181.629 184.222C184.68 184.187 187.83 184.307 190.858 183.941C190.868 193.91 191.042 203.793 191.394 213.752C191.645 220.859 191.848 227.783 192.777 234.853C195.09 252.464 202.043 270.501 214.767 283.166C226.432 294.776 243.507 302.962 260.102 303.35C269.611 303.412 275.098 302.688 284.306 300.152C295.326 297.115 309.183 289.606 320.581 291.19C323.35 291.602 328.757 292.556 330.62 294.803C331.49 298.843 330.923 307.421 330.91 312.049L330.898 345.708L330.902 406.927L330.909 424.565C330.923 430.063 331.037 435.563 330.453 441.04C329.823 446.953 326.615 458.364 323.308 463.274C323.116 463.56 323.098 463.567 322.899 463.784C322.093 465.707 320.83 467.499 319.654 469.219C313.059 478.863 303.136 487.252 292.307 491.723C289.076 493.057 285.778 493.909 282.511 495.078C275.783 496.436 270.361 496.693 263.542 496.585C247.51 496.33 232.422 488.377 221.466 477.022Q220.035 475.56 218.705 474.005Q217.375 472.45 216.152 470.81Q214.93 469.169 213.82 467.45Q212.71 465.731 211.719 463.942Q210.727 462.152 209.857 460.3Q208.988 458.448 208.244 456.542Q207.501 454.636 206.887 452.684Q206.273 450.733 205.792 448.744C203.462 438.867 203.929 428.864 203.929 418.804L203.939 390.234C203.95 364.165 203.578 338.039 204.013 311.979C201.59 312.086 199.142 311.998 196.716 311.977C170.244 312.353 143.719 312.002 117.241 312.011L91.8062 312.021C86.2274 312.021 80.4368 312.329 74.9024 311.563Q73.3529 311.333 71.8165 311.028Q70.2802 310.722 68.7606 310.342Q67.241 309.962 65.7419 309.507Q64.2428 309.053 62.7677 308.526Q61.2926 307.999 59.8451 307.4Q58.3976 306.801 56.9812 306.132Q55.5648 305.463 54.1828 304.726Q52.8009 303.988 51.4567 303.184Q50.1125 302.38 48.8093 301.511Q47.5062 300.641 46.2471 299.709Q44.9881 298.777 43.7762 297.785Q42.5643 296.792 41.4025 295.742Q40.2407 294.691 39.1317 293.585Q38.0228 292.478 36.9693 291.319Q35.9159 290.16 34.9205 288.95Q33.9251 287.741 32.9901 286.484C23.4709 273.755 18.3147 256.333 20.6612 240.466C22.7667 226.228 28.5967 213.399 38.8521 203.185C40.5031 201.54 42.1337 199.741 44.0052 198.355C50.0268 192.804 61.0693 187.68 69.1949 185.964C78.0536 184.092 86.2618 184.206 95.2534 184.208L116.278 184.216L181.629 184.222Z"/>
	<defs>
		<linearGradient id="gradient_0" gradientUnits="userSpaceOnUse" x1="34.135406" y1="294.02924" x2="175.58968" y2="237.02246">
			<stop offset="0" stop-color="#81121A"/>
			<stop offset="1" stop-color="#B3212A"/>
		</linearGradient>
	</defs>
	<path fill="url(#gradient_0)" d="M44.0052 198.355C43.8685 199.144 43.5122 199.528 43.0384 200.135C42.974 200.217 42.9124 200.302 42.8482 200.385C40.9039 202.885 38.0349 204.756 36.1565 207.295C35.7668 207.822 32.429 216.894 31.9329 218.309C24.2387 234.187 24.3099 251.892 30.0258 268.372C31.5022 272.629 34.3599 280.24 37.5792 283.261C46.4994 296.115 62.0984 305.154 77.4458 307.938C81.698 308.71 86.4942 308.18 90.8085 307.974C96.3932 307.708 101.984 307.399 107.576 307.376C131.081 307.28 154.604 307.615 178.106 307.301C186.188 307.192 194.594 307.694 202.623 307.017C204.73 307.272 206.343 308.577 207.618 310.225C208.134 310.891 208.457 311.646 208.67 312.457C208.15 311.85 207.624 311.229 206.955 310.779C206.418 310.417 205.82 310.163 205.184 310.301L204.852 311.087C204.397 311.227 203.94 311.352 203.481 311.48C201.229 312.11 198.965 311.378 196.716 311.977C170.244 312.353 143.719 312.002 117.241 312.011L91.8062 312.021C86.2274 312.021 80.4368 312.329 74.9024 311.563Q73.3529 311.333 71.8165 311.028Q70.2802 310.722 68.7606 310.342Q67.241 309.962 65.7419 309.507Q64.2428 309.053 62.7677 308.526Q61.2926 307.999 59.8451 307.4Q58.3976 306.801 56.9812 306.132Q55.5648 305.463 54.1828 304.726Q52.8009 303.988 51.4567 303.184Q50.1125 302.38 48.8093 301.511Q47.5062 300.641 46.2471 299.709Q44.9881 298.777 43.7762 297.785Q42.5643 296.792 41.4025 295.742Q40.2407 294.691 39.1317 293.585Q38.0228 292.478 36.9693 291.319Q35.9159 290.16 34.9205 288.95Q33.9251 287.741 32.9901 286.484C23.4709 273.755 18.3147 256.333 20.6612 240.466C22.7667 226.228 28.5967 213.399 38.8521 203.185C40.5031 201.54 42.1337 199.741 44.0052 198.355Z"/>
	<path fill="#7B1119" d="M196.716 311.977C198.965 311.378 201.229 312.11 203.481 311.48C203.94 311.352 204.397 311.227 204.852 311.087L205.184 310.301C205.82 310.163 206.418 310.417 206.955 310.779C207.624 311.229 208.15 311.85 208.67 312.457C209.374 315.056 209.797 317.526 209.78 320.221C210.166 347.686 209.847 375.187 209.857 402.657C209.859 408.897 209.905 415.141 209.833 421.381C209.739 429.522 209.278 436.701 211.075 444.768C213.76 456.819 218.92 467.05 227.817 475.752Q231.278 479.192 235.259 482.016C241.179 486.145 254.221 493.217 261.382 493.078C261.915 493.067 262.291 493.095 262.75 492.798C265.741 493.189 270.206 493.356 272.807 494.851C272.843 495.404 272.764 495.593 272.572 496.099C275.925 496.496 279.18 494.225 282.511 495.078C275.783 496.436 270.361 496.693 263.542 496.585C247.51 496.33 232.422 488.377 221.466 477.022Q220.035 475.56 218.705 474.005Q217.375 472.45 216.152 470.81Q214.93 469.169 213.82 467.45Q212.71 465.731 211.719 463.942Q210.727 462.152 209.857 460.3Q208.988 458.448 208.244 456.542Q207.501 454.636 206.887 452.684Q206.273 450.733 205.792 448.744C203.462 438.867 203.929 428.864 203.929 418.804L203.939 390.234C203.95 364.165 203.578 338.039 204.013 311.979C201.59 312.086 199.142 311.998 196.716 311.977Z"/>
	<path fill="#F66D78" d="M320.581 291.19C323.35 291.602 328.757 292.556 330.62 294.803C331.49 298.843 330.923 307.421 330.91 312.049L330.898 345.708L330.902 406.927L330.909 424.565C330.923 430.063 331.037 435.563 330.453 441.04C329.823 446.953 326.615 458.364 323.308 463.274C323.116 463.56 323.098 463.567 322.899 463.784C322.74 463.62 322.675 463.598 322.703 463.277C322.726 463 326.796 454.786 327.232 452.874C327.465 451.854 325.612 450.051 325.357 448.921C324.679 445.911 325.364 442.215 325.161 439.103C325.075 437.791 324.226 436.572 324.178 435.259C324.151 434.514 324.167 433.76 324.156 433.014C323.74 433.784 323.973 436.419 323.865 437.44C323.636 439.611 322.559 447.806 321.633 449.454C321.611 446.896 322.573 444.018 322.982 441.468C323.556 437.883 323.767 434.298 323.84 430.674C324.048 420.299 323.891 409.899 323.891 399.521L323.89 342.307L323.884 313.104C323.881 309.7 324.281 304.175 323.868 300.994C323.735 299.97 322.499 298.911 321.807 298.189C323.63 295.513 321.42 295.9 321.921 293.513C322.033 292.975 322.083 292.563 322.046 292.006C320.817 291.754 319.506 291.703 318.31 291.392L320.581 291.19Z"/>
	<path fill="#F66D78" d="M181.629 184.222C184.68 184.187 187.83 184.307 190.858 183.941C190.868 193.91 191.042 203.793 191.394 213.752C191.645 220.859 191.848 227.783 192.777 234.853C195.09 252.464 202.043 270.501 214.767 283.166C226.432 294.776 243.507 302.962 260.102 303.35C261.027 303.638 261.958 303.607 262.917 303.62C261.418 304.278 255.072 303.755 253.173 303.398C251.607 303.103 250.053 302.356 248.487 302.147C247.443 302.008 246.44 303.789 245.102 303.86C240.66 304.095 236.398 302.421 232.006 302.622C233.655 303.347 235.531 304.542 237.272 304.911C237.842 305.032 238.245 305.16 238.769 305.416L238.84 305.553L238.792 305.245L238.391 305.895C236.879 305.484 232.59 303.287 231.026 302.492C223.465 298.645 216.311 293.185 210.37 287.158C190.082 266.576 185.012 240.003 184.043 212.136C183.823 205.837 184.041 199.471 183.709 193.192C183.617 191.461 183.328 189.728 183.184 187.999C183.092 186.893 183.27 185.519 182.932 184.482C182.534 184.506 182.327 184.493 181.942 184.351C181.836 184.312 181.734 184.265 181.629 184.222Z"/>
	<path fill="#BD1F29" d="M31.9329 218.309L32.2357 218.51L32.3396 218.269C33.8236 214.916 38.8884 208.547 41.8258 206.567C43.2368 205.616 44.7731 203.351 46.2619 202.868C46.2346 203.027 46.2358 203.193 46.18 203.344C45.8694 204.184 44.1056 205.667 43.4357 206.438C41.2985 208.897 39.3256 211.38 37.5973 214.146C28.5795 228.582 24.9016 250.009 30.1961 266.443C31.5651 270.692 33.6631 274.595 36.2285 278.237C38.6851 281.724 41.5187 284.971 43.9305 288.472C46.5465 291.037 49.514 293.232 52.542 295.284C59.6869 301.508 70.0496 304.231 79.2563 305.582C84.4546 306.344 89.7468 306.201 94.9876 306.2L113.053 306.198L177.16 306.216C182.937 306.217 197.712 305.561 202.623 307.017C194.594 307.694 186.188 307.192 178.106 307.301C154.604 307.615 131.081 307.28 107.576 307.376C101.984 307.399 96.3932 307.708 90.8085 307.974C86.4942 308.18 81.698 308.71 77.4458 307.938C62.0984 305.154 46.4994 296.115 37.5792 283.261C34.3599 280.24 31.5022 272.629 30.0258 268.372C24.3099 251.892 24.2387 234.187 31.9329 218.309Z"/>
	<path fill="#BD1F29" d="M209.78 320.221L210.014 320.136L210.053 390.782C210.053 401.791 209.726 412.917 210.142 423.913C210.249 426.721 210.63 429.515 210.822 432.317C211.225 438.204 211.394 443.903 212.997 449.633C215.299 457.867 221.766 467.673 227.845 473.646C239.958 485.549 255.002 490.1 271.684 489.858C275.054 489.809 278.312 489.579 281.642 489.033C282.213 488.939 283.538 488.511 283.967 488.87C283.836 489.142 283.906 489.123 283.628 489.238C281.227 490.234 274.834 489.148 273.118 491.2C272.52 491.916 271.767 492.431 270.816 492.528C269.596 492.652 265.181 492.881 264.264 492.536C264.192 492.576 264.123 492.622 264.047 492.655C263.609 492.844 263.218 492.802 262.75 492.798C262.291 493.095 261.915 493.067 261.382 493.078C254.221 493.217 241.179 486.145 235.259 482.016Q231.278 479.192 227.817 475.752C218.92 467.05 213.76 456.819 211.075 444.768C209.278 436.701 209.739 429.522 209.833 421.381C209.905 415.141 209.859 408.897 209.857 402.657C209.847 375.187 210.166 347.686 209.78 320.221Z"/>
	<path fill="#29A945" d="M242.649 9.45903C245.144 8.81255 247.608 8.06324 250.145 7.59263C262.561 5.28908 275.833 6.44319 286.839 12.9362C302.953 22.4435 312.476 40.3332 316.878 58.0215C317.441 60.2843 317.715 62.6283 318.111 64.9249C318.494 67.1397 319.027 69.3244 319.311 71.5565C321.452 88.3854 320.607 109.136 320.143 126.211Q319.839 142.419 319.708 158.628C319.676 163.097 319.501 167.549 319.361 172.014C319.266 175.076 319.017 178.253 319.448 181.297C319.662 182.81 320.125 184.899 321.567 185.728C322.876 186.479 324.59 186.351 326.046 186.31C327.978 184.739 330.795 183.625 333.067 182.596Q335.511 181.493 338.02 180.551Q340.53 179.609 343.096 178.832Q345.662 178.054 348.272 177.445Q350.883 176.835 353.528 176.396Q356.172 175.957 358.84 175.69Q361.508 175.424 364.187 175.331Q366.866 175.237 369.546 175.318Q372.225 175.399 374.894 175.653C378.811 176.041 383.573 176.556 387.196 178.037L387.424 178.357C383.316 178.74 379.117 178.281 374.961 178.675C367.841 179.349 360.3 181.421 353.628 183.947C351.222 184.858 348.918 186.027 346.515 186.931C341.868 189.804 337.708 191.786 333.174 195.147C327.14 199.62 321.771 204.828 315.377 208.856C310.08 212.193 303.779 214.575 297.466 213.09C289.504 211.217 285.376 204.587 283.248 197.187C280.329 187.037 281.458 175.103 281.487 164.626Q281.495 135.402 281.849 106.18Q282.001 95.375 282.016 84.569C282.033 78.5423 282.181 72.5044 281.355 66.5173C280.793 62.447 279.455 58.3246 277.273 54.827C274.723 50.7418 270.7 47.0598 265.882 46.0121C260.41 44.8223 256.536 47.3378 252.156 50.0707C249.522 52.699 247.218 55.652 245.641 59.0422C244.342 62.6747 243.381 66.4959 243.102 70.3561C242.521 78.4078 242.747 86.5903 242.751 94.6624L243.197 145.93L243.233 195.772C243.249 206.556 242.914 217.592 243.923 228.334C244.235 231.653 245.537 235.843 246.952 238.852C249.507 244.286 253.745 248.553 259.445 250.591C261.282 251.248 263.161 251.63 265.097 251.833C271.219 251.975 276.045 250.658 281.768 248.646C283.436 247.6 285.658 247.012 287.504 246.334C290.519 245.228 293.532 244.094 296.396 242.631C303.6 238.95 321.674 226.373 327.981 225.391C343.434 219.438 372.636 215.134 389.306 214.992C395.962 214.935 402.953 215.519 409.493 216.753C416.214 218.021 423.014 220.63 429.232 223.408C433.302 225.226 454.407 237.034 456.274 240.078C458.209 241.1 459.949 242.787 461.787 244.029C458.721 240.491 455.125 237.233 451.66 234.082C441.004 224.391 429.66 215.645 415.816 211.069Q411.038 209.459 406.085 208.517Q401.132 207.575 396.097 207.318C390.354 206.991 384.592 207.409 378.874 207.933Q371.152 208.633 363.502 209.896Q355.852 211.159 348.315 212.98Q340.778 214.8 333.395 217.168Q326.011 219.535 318.821 222.437C314.348 224.283 310.206 226.602 305.894 228.772C307.188 227.314 308.756 226 310.171 224.653C322.343 213.056 336.606 202.486 351.866 195.329C354.597 194.048 357.409 192.696 360.329 191.919C361.278 191.442 362.296 191.158 363.282 190.768C365.533 189.879 367.96 189.351 370.302 188.754C383.655 185.353 396.991 185.365 410.352 188.709C412.856 189.336 415.464 189.916 417.832 190.951C426.667 194.292 433.68 196.925 441.845 201.836C451.602 207.706 460.518 216.825 471.664 219.83C475.547 220.442 479.473 220.113 483.065 218.401C484.6 217.296 486.073 216.253 487.789 215.448C486.574 225.995 487.018 236.649 485.391 247.192C485.16 248.691 485.032 250.294 484.668 251.76C482.324 268.357 475.77 286.524 464.188 298.923C462.791 300.419 461.372 302.042 459.749 303.292C459.273 303.658 458.604 304.214 458.008 304.34C451.372 310.688 442.055 314.203 433.302 316.441C424.102 318.794 413.801 318.727 404.368 318.34C379.468 317.318 365.62 311.375 345.613 296.923C339.828 292.744 334.26 288.157 328.11 284.514C306.126 271.494 293.342 282.403 272.106 287.838C258.095 291.425 244.354 289.612 231.891 282.169C218.824 274.365 211.354 261.559 207.751 247.06C204.421 233.66 204.644 219.603 204.251 205.875Q203.358 177.275 203.481 148.663L203.166 107.507C203.099 91.2719 203.042 77.6289 205.668 61.5386C207.41 50.8688 211.453 40.0299 217.049 30.7825C222.99 20.9662 231.172 12.2805 242.649 9.45903Z"/>
	<defs>
		<linearGradient id="gradient_1" gradientUnits="userSpaceOnUse" x1="261.35349" y1="102.90932" x2="323.09982" y2="89.953011">
			<stop offset="0" stop-color="#37B955"/>
			<stop offset="1" stop-color="#80D292"/>
		</linearGradient>
	</defs>
	<path fill="url(#gradient_1)" d="M242.649 9.45903C245.144 8.81255 247.608 8.06324 250.145 7.59263C262.561 5.28908 275.833 6.44319 286.839 12.9362C302.953 22.4435 312.476 40.3332 316.878 58.0215C317.441 60.2843 317.715 62.6283 318.111 64.9249C318.494 67.1397 319.027 69.3244 319.311 71.5565C321.452 88.3854 320.607 109.136 320.143 126.211Q319.839 142.419 319.708 158.628C319.676 163.097 319.501 167.549 319.361 172.014C319.266 175.076 319.017 178.253 319.448 181.297C319.662 182.81 320.125 184.899 321.567 185.728C322.876 186.479 324.59 186.351 326.046 186.31C324.994 187.152 324.429 186.847 323.222 186.799C322.37 186.765 321.946 187.032 321.333 187.6C320.944 187.96 320.63 188.336 320.071 188.412C318.49 188.627 316.339 187.207 315.06 186.396C316.731 188.14 318.315 189.624 320.276 191.031C319.325 190.853 317.879 189.959 317.169 189.305C314.543 186.888 312.98 183.116 312.422 179.648C311.2 172.07 312.269 159.338 312.469 151.323L313.072 121.5C313.251 112.751 313.548 103.977 313.439 95.2264C313.2 76.1668 311.69 56.846 302.999 39.5471C301.334 36.232 299.238 32.3414 296.567 29.7362C296.534 29.6507 296.513 29.5588 296.467 29.4796C295.59 27.9828 293.851 26.5178 292.635 25.2832C282.528 15.0181 267.68 12.7915 253.858 14.6105C251.842 14.8758 245.09 16.9754 243.981 16.7718C243.113 15.9581 242.896 14.9513 242.724 13.8064C242.467 12.0995 242.594 11.7763 243.572 10.4828L243.511 10.0468L243.641 9.91212L242.649 9.45903Z"/>
	<path fill="#6CCC82" d="M238.579 58.4713C238.641 58.4339 238.708 58.4052 238.764 58.3593C240.547 56.8834 239.725 52.5924 242.604 52.3142C243.595 52.2184 246.059 52.8982 246.811 53.5554C247.148 53.8495 247.305 54.0075 247.277 54.4483C247.168 56.1567 245.602 57.1362 245.641 59.0422C244.342 62.6747 243.381 66.4959 243.102 70.3561C242.521 78.4078 242.747 86.5903 242.751 94.6624L243.197 145.93L243.233 195.772C243.249 206.556 242.914 217.592 243.923 228.334C244.235 231.653 245.537 235.843 246.952 238.852C249.507 244.286 253.745 248.553 259.445 250.591C261.282 251.248 263.161 251.63 265.097 251.833L265.384 251.907C267.035 252.318 270.754 251.778 271.856 252.975C272.077 254.307 271.161 255.376 270.42 256.426C269.896 257.17 269.298 257.773 268.621 258.378C265.308 258.428 262.229 257.81 259.005 257.115C258.415 256.988 258.677 256.994 258.129 257.085Q257.763 256.955 257.4 256.817C249.602 253.875 243.559 246.523 240.251 239.084C238.033 234.095 236.998 228.613 236.525 223.199C235.706 213.839 236.021 204.351 235.955 194.959Q235.746 169.314 235.802 143.667L235.414 100.76C235.338 92.8582 235.04 84.8763 235.457 76.9825C235.785 70.7701 236.306 64.3116 238.579 58.4713Z"/>
	<defs>
		<linearGradient id="gradient_2" gradientUnits="userSpaceOnUse" x1="417.21793" y1="228.80653" x2="430.23895" y2="196.3647">
			<stop offset="0" stop-color="#10AB32"/>
			<stop offset="1" stop-color="#5CC674"/>
		</linearGradient>
	</defs>
	<path fill="url(#gradient_2)" d="M360.329 191.919C361.278 191.442 362.296 191.158 363.282 190.768C365.533 189.879 367.96 189.351 370.302 188.754C383.655 185.353 396.991 185.365 410.352 188.709C412.856 189.336 415.464 189.916 417.832 190.951C426.667 194.292 433.68 196.925 441.845 201.836C451.602 207.706 460.518 216.825 471.664 219.83C475.547 220.442 479.473 220.113 483.065 218.401C482.667 218.973 482.346 219.487 481.747 219.871C480.762 220.59 480.23 222.588 480.054 223.728C479.347 228.305 479.448 242.378 478.024 245.657C477.24 247.165 476.676 250.362 476.728 252.085C476.732 252.238 476.742 252.391 476.749 252.544L476.361 252.671C475.966 252.19 476.081 252.209 476.117 251.625C476.202 251.541 476.294 251.463 476.373 251.373C476.732 250.961 476.861 250.599 476.899 250.067C477.063 247.77 476.758 245.446 476.909 243.125C477.207 238.521 478.36 233.653 477.782 229.034C477.362 228.972 477.534 228.979 477.169 228.983C472.417 229.036 464.359 227.701 460.038 225.698C453.998 222.897 448.724 217.944 443.249 214.17C439.672 211.705 435.882 209.209 432.043 207.19C422.883 202.372 405.301 195.824 395.22 194.934C390.183 194.49 385.445 194.997 380.444 195.301C379.488 195.359 378.313 195.182 377.406 195.419C376.304 195.707 375.286 196.515 374.211 196.921C370.985 198.14 366.61 198.756 363.192 198.948L362.901 198.5C362.918 197.962 363.011 197.231 362.767 196.741C361.63 194.462 363.13 194.351 363.279 192.383C363.292 192.217 363.272 192.046 363.312 191.885C363.346 191.749 363.436 191.633 363.498 191.507L363.369 191.356C362.464 191.734 361.6 191.98 360.641 192.184L360.329 191.919Z"/>
	<path fill="#6CCC82" d="M417.832 190.951C426.667 194.292 433.68 196.925 441.845 201.836C451.602 207.706 460.518 216.825 471.664 219.83L471.103 220.117C470.605 219.987 470.227 219.925 469.712 219.952C469.221 220.619 468.812 221.152 468.132 221.634C463.743 222.64 460.792 219.79 457.233 218.749L457.585 219.048L457.143 218.621L457.554 218.784C458.04 219.835 460.798 221.35 461.818 222.06C461.304 221.892 460.842 221.702 460.357 221.458C457.471 220.004 454.79 217.893 452.169 216.015C448.48 213.372 444.744 210.781 441.096 208.082C439.54 206.93 438.084 205.654 436.498 204.542C433.324 202.315 429.783 200.57 426.39 198.704C424.375 197.597 417.144 194.239 416.447 192.173C416.782 191.429 417.14 191.354 417.832 190.951Z"/>
	<defs>
		<linearGradient id="gradient_3" gradientUnits="userSpaceOnUse" x1="389.81522" y1="251.00755" x2="403.50333" y2="213.96869">
			<stop offset="0" stop-color="#25B344"/>
			<stop offset="1" stop-color="#5FC777"/>
		</linearGradient>
	</defs>
	<path fill="url(#gradient_3)" d="M327.981 225.391C343.434 219.438 372.636 215.134 389.306 214.992C395.962 214.935 402.953 215.519 409.493 216.753C416.214 218.021 423.014 220.63 429.232 223.408C433.302 225.226 454.407 237.034 456.274 240.078C456.761 241.4 458.912 242.537 460.005 243.486C460.261 244.386 459.54 245.461 459.316 246.341C459.149 246.993 458.962 247.605 458.451 248.086C457.949 248.56 457.576 248.636 456.907 248.68C456.567 248.541 456.394 248.434 456.186 248.125C455.977 247.814 455.78 247.479 455.506 247.218C454.185 245.957 448.025 242.91 445.789 241.281C439.486 236.691 432.886 232.387 425.706 229.283C406.222 220.859 383.509 221.479 362.978 225.087C356.266 226.267 349.484 227.572 342.833 229.052C340.351 229.605 337.77 230.944 335.241 231.015C334.064 230.046 332.871 228.397 332.221 227.02C332.366 226.394 332.549 225.83 332.399 225.188L331.722 224.799C330.897 224.732 329.236 225.227 328.577 225.735C328.511 225.786 328.468 225.86 328.414 225.922L327.981 225.391Z"/>
	<defs>
		<linearGradient id="gradient_4" gradientUnits="userSpaceOnUse" x1="455.05804" y1="262.19449" x2="483.59946" y2="261.83206">
			<stop offset="0" stop-color="#2CB04B"/>
			<stop offset="1" stop-color="#68CB7E"/>
		</linearGradient>
	</defs>
	<path fill="url(#gradient_4)" d="M483.065 218.401C484.6 217.296 486.073 216.253 487.789 215.448C486.574 225.995 487.018 236.649 485.391 247.192C485.16 248.691 485.032 250.294 484.668 251.76C482.324 268.357 475.77 286.524 464.188 298.923C462.791 300.419 461.372 302.042 459.749 303.292C459.273 303.658 458.604 304.214 458.008 304.34L457.938 303.958L459.181 303.017L459.208 302.581C458.86 302.844 459.052 302.735 458.626 302.901C457.096 301.99 455.974 298.757 455.489 297.088C455.741 295.47 457.486 294.55 458.633 293.517C469.6 283.645 477.203 260.357 478.024 245.657C479.448 242.378 479.347 228.305 480.054 223.728C480.23 222.588 480.762 220.59 481.747 219.871C482.346 219.487 482.667 218.973 483.065 218.401Z"/>
	<path fill="#6CCC82" d="M483.065 218.401C484.6 217.296 486.073 216.253 487.789 215.448C486.574 225.995 487.018 236.649 485.391 247.192C485.16 248.691 485.032 250.294 484.668 251.76L484.304 251.935C484.113 252.577 483.947 253.203 483.811 253.858L483.453 253.744C480.898 249.095 483.22 238.449 482.79 232.985C482.573 230.224 481.576 227.53 481.428 224.763C481.338 223.08 482.033 221.574 481.747 219.871C482.346 219.487 482.667 218.973 483.065 218.401Z"/>
	<defs>
		<linearGradient id="gradient_5" gradientUnits="userSpaceOnUse" x1="328.79114" y1="167.62402" x2="387.26276" y2="104.13038">
			<stop offset="0" stop-color="#25A341"/>
			<stop offset="1" stop-color="#34BF54"/>
		</linearGradient>
	</defs>
	<path fill="url(#gradient_5)" d="M389.487 104.924L397.791 104.006C396.522 107.989 396.459 112.075 395.539 116.107C392.49 129.459 387.092 144.348 377.719 154.6C369.478 165.491 358.422 168.227 345.656 170.027Q345.36 170.068 345.064 170.106C339.765 170.838 332.141 171.173 327.983 174.835L325.962 176.618C325.894 173.366 326.291 170.109 326.167 166.865C325.755 156.079 323.669 144.565 326.917 134.005C329.059 127.04 333.534 121.293 340.022 117.867C341.419 116.468 343.854 115.677 345.663 114.946C358.982 109.558 375.205 106.334 389.487 104.924Z"/>
	<defs>
		<linearGradient id="gradient_6" gradientUnits="userSpaceOnUse" x1="366.84912" y1="139.39473" x2="404.28458" y2="118.34305">
			<stop offset="0" stop-color="#39B557"/>
			<stop offset="1" stop-color="#75D388"/>
		</linearGradient>
	</defs>
	<path fill="url(#gradient_6)" d="M389.487 104.924L397.791 104.006C396.522 107.989 396.459 112.075 395.539 116.107C392.49 129.459 387.092 144.348 377.719 154.6C377.634 154.567 377.554 154.519 377.464 154.502C376.771 154.374 376.371 154.39 375.724 154.028C373.933 153.024 373.501 150.928 373.02 149.081C379.986 142.049 386.188 125.293 388.119 115.526C388.8 112.081 388.826 108.589 389.443 105.157L389.487 104.924Z"/>
	<defs>
		<linearGradient id="gradient_7" gradientUnits="userSpaceOnUse" x1="325.19348" y1="150.18356" x2="333.09033" y2="149.8369">
			<stop offset="0" stop-color="#11551F"/>
			<stop offset="1" stop-color="#217331"/>
		</linearGradient>
	</defs>
	<path fill="url(#gradient_7)" d="M340.022 117.867C339.872 118.411 339.981 118.489 339.474 118.788C337.741 119.811 332.897 123.061 332.44 125.027C331.727 128.091 331.152 131.411 331.065 134.552C331.085 134.467 331.105 134.381 331.127 134.297C331.627 132.327 332.928 132.031 333.9 130.441C333.97 130.327 334.243 130.069 334.358 129.936C334.677 129.568 334.887 129.117 335.125 128.695C335.309 128.367 335.212 128.488 335.442 128.271L335.616 128.563C331.213 138.902 331.639 141.951 331.911 152.89C331.974 155.423 331.753 158.048 332.02 160.563C332.251 162.742 333.558 166.438 333.491 168.215C333.465 168.932 332.458 168.697 332.451 169.807L332.959 169.859C333.114 170.549 332.609 170.563 333.016 171.412C334.183 172.033 342.371 169.436 345.064 170.106C339.765 170.838 332.141 171.173 327.983 174.835L325.962 176.618C325.894 173.366 326.291 170.109 326.167 166.865C325.755 156.079 323.669 144.565 326.917 134.005C329.059 127.04 333.534 121.293 340.022 117.867Z"/>
	<defs>
		<linearGradient id="gradient_8" gradientUnits="userSpaceOnUse" x1="386.1521" y1="177.43773" x2="400.28229" y2="153.13521">
			<stop offset="0" stop-color="#146825"/>
			<stop offset="1" stop-color="#3ECF5F"/>
		</linearGradient>
	</defs>
	<path fill="url(#gradient_8)" d="M375.211 163.724C375.569 163.138 376.282 162.572 376.74 162.019C379.425 158.779 382.066 154.888 385.471 152.384C388.16 150.407 391.594 149.39 394.92 149.919C403.944 150.56 412.721 154.549 421.041 157.811C420.226 159.474 419.223 160.677 417.986 162.043C410.744 168.227 403.286 176.096 392.984 175.283C387.092 174.818 379.056 172.421 373.369 170.532L368.32 168.925C370.954 167.579 373.008 165.659 375.211 163.724Z"/>
	<defs>
		<linearGradient id="gradient_9" gradientUnits="userSpaceOnUse" x1="403.12549" y1="159.88831" x2="411.81592" y2="150.44696">
			<stop offset="0" stop-color="#54BE6B"/>
			<stop offset="1" stop-color="#7CDA92"/>
		</linearGradient>
	</defs>
	<path fill="url(#gradient_9)" d="M394.92 149.919C403.944 150.56 412.721 154.549 421.041 157.811C420.226 159.474 419.223 160.677 417.986 162.043C417.603 162.014 417.24 162.005 416.857 162.038C412.254 162.438 407.637 160.09 403.274 158.875C401.122 158.276 398.924 158.031 396.737 157.609C398.364 156.962 402.114 158.355 403.988 158.562L404.021 158.403C402.623 157.682 396.962 154.883 396.323 153.727C395.504 152.244 396.425 151.258 394.92 149.919Z"/>
	<path fill="#085B1E" d="M375.211 163.724C374.86 165.927 370.461 167.022 371.975 168.98C372.432 169.572 373.08 169.797 373.369 170.532L368.32 168.925C370.954 167.579 373.008 165.659 375.211 163.724Z"/>
</svg>
