<?xml version="1.0" encoding="utf-8" ?>
<svg xmlns="http://www.w3.org/2000/svg" xmlns:xlink="http://www.w3.org/1999/xlink" width="465" height="100">
	<path fill="#2AB54A" d="M34.5411 37.4072C35.5646 29.8138 32.9223 14.8945 37.9455 9.16581C39.5106 7.38082 42.006 6.10693 44.3893 5.9763C46.7565 5.84656 49.6196 6.92386 51.3626 8.52123C54.4155 11.319 55.5015 17.1822 55.6692 21.1049C55.8286 23.3099 55.8184 25.575 56.173 27.7557C57.1037 26.6593 57.8262 25.8599 59.2071 25.3368C61.1288 24.1362 66.3984 22.83 68.6378 23.2224C68.7558 23.2431 68.8753 23.3044 68.9787 23.3629C69.7017 25.4273 66.7472 29.2362 67.2085 30.9697C68.818 30.6062 72.211 31.5488 73.5956 32.4286C73.6146 32.4406 73.6332 32.453 73.652 32.4653C73.694 32.8103 73.7406 32.8975 73.5141 33.1834C72.6858 34.2292 70.0791 35.9506 68.7508 36.1157C67.2827 36.2981 65.2534 35.4221 63.8398 34.976C62.9513 34.9077 62.2129 34.9194 61.3437 35.1254L61.7484 35.0017L61.6185 35.3569C62.5696 35.6796 63.6531 35.8372 64.5569 36.2424C66.4836 37.8627 69.7174 37.3692 72.0883 38.0173C74.4958 38.6753 76.7147 39.8847 78.7291 41.3329C79.2167 41.6834 80.4447 42.3881 80.7457 42.874C82.1228 43.0438 84.029 42.8128 85.2803 43.2586C85.8684 45.4877 83.1574 53.6232 81.9185 55.7602C80.5837 58.0628 78.8799 59.8072 76.2505 60.503C70.3483 62.0649 65.0681 60.3915 59.9772 57.4169C59.1849 56.9539 58.1698 56.1596 57.2429 56.1078L56.92 56.2362L56.0533 55.8299L56.4269 55.4879C55.9196 54.8251 54.7857 54.4609 53.9946 54.176C51.0276 54.9289 47.6838 56.1285 44.6286 56.2161C43.7738 56.0798 42.8912 55.9442 42.0883 55.6097C35.757 52.9721 35.2746 47.1061 34.9321 41.0732C34.8704 39.9865 34.9775 38.437 34.5594 37.449C34.5535 37.435 34.5472 37.4211 34.5411 37.4072ZM53.7038 43.404C52.4949 43.2644 51.5615 43.1001 50.4775 42.5141C50.4598 42.503 50.4421 42.4921 50.4245 42.4808C49.3734 41.8048 49.0739 40.4696 48.8315 39.3135C47.8832 34.7908 50.2181 15.6321 46.7705 13.3871C46.2219 13.0298 45.3411 12.8855 44.7049 13.0302C43.9514 13.2015 43.4028 13.752 43.0107 14.3927C42.3884 15.4094 42.1064 16.6765 41.9703 17.8499C41.4916 21.975 41.4045 41.6336 42.2803 45.1482C42.5966 46.4176 43.1606 47.8964 44.3408 48.5933C45.3003 49.1599 46.6077 49.0009 47.6332 48.7264C48.9478 48.3744 50.2414 47.7684 51.5169 47.2861C52.6873 46.1528 53.1782 44.9039 53.7038 43.404Z"/>
	<path fill="#FBFCFB" d="M54.0474 43.8674C54.0692 43.8689 54.091 43.8707 54.1128 43.872C55.6526 43.9647 57.5696 43.2669 59.0632 42.8765C67.0198 40.7973 73.1134 39.849 79.2242 46.6592Q79.7739 47.2756 80.2943 47.9171C73.1999 43.5593 68.2973 41.8997 59.8956 43.9159C56.6477 44.6954 53.7732 46.8087 51.5169 47.2861C52.6873 46.1528 53.1782 44.9039 53.7038 43.404L54.0474 43.8674Z"/>
	<path fill="#FBFCFB" d="M64.5569 36.2424C66.4836 37.8627 69.7174 37.3692 72.0883 38.0173C74.4958 38.6753 76.7147 39.8847 78.7291 41.3329C79.2167 41.6834 80.4447 42.3881 80.7457 42.874C80.7127 42.8742 80.6797 42.8752 80.6467 42.8746C79.7003 42.8548 78.0776 41.5029 77.2718 40.9762C68.2938 35.1084 62.0907 38.402 54.0474 43.8674L53.7038 43.404C52.4949 43.2644 51.5615 43.1001 50.4775 42.5141C54.6193 42.6873 57.0694 39.6444 60.4869 37.7548C61.7382 37.0629 63.1963 36.6688 64.5569 36.2424Z"/>
	<path fill="#FBFCFB" d="M55.0741 37.6233C54.539 34.3045 55.0037 24.3323 55.6692 21.1049C55.8286 23.3099 55.8184 25.575 56.173 27.7557C57.1037 26.6593 57.8262 25.8599 59.2071 25.3368Q58.8936 25.6167 58.5891 25.9064C56.8799 27.5382 56.2358 30.1848 56.1982 32.506C56.1807 33.5924 56.33 34.2309 57.0885 35.0185C57.9041 35.4067 59.3709 35.0638 60.2663 34.9744C59.7475 35.2363 58.8348 35.3374 58.5869 35.8563C59.5385 36.4308 60.6664 35.5609 61.5115 36.1292Q58.3068 36.9366 55.0741 37.6233Z"/>
	<path fill="#2AB54A" d="M334.335 37.3748C334.817 37.3226 335.353 37.2692 335.833 37.342Q336.245 37.4037 336.637 37.5454Q337.03 37.6871 337.386 37.9033Q337.743 38.1195 338.05 38.4016Q338.357 38.6838 338.602 39.0209C339.197 39.8241 339.738 40.7695 339.63 41.7814C339.612 41.9544 339.713 42.1017 339.818 42.2295C341.286 41.9447 343.685 39.3038 345.375 38.4992C348.847 36.8458 353.1 36.8744 356.691 38.1552C360.003 39.3362 362.991 41.7274 364.5 44.9334C367.408 51.1069 367.404 61.9456 365.1 68.3206Q364.885 68.9222 364.611 69.4998Q364.338 70.0774 364.009 70.6254Q363.681 71.1734 363.3 71.6865Q362.919 72.1997 362.49 72.673Q362.06 73.1463 361.587 73.5752Q361.113 74.0041 360.6 74.3845Q360.086 74.7649 359.538 75.0931Q358.99 75.4213 358.412 75.6941C353.861 77.8218 349.02 77.0273 344.483 75.3748C343.947 74.5085 340.968 72.9037 339.972 72.4764C340.185 72.8664 340.361 73.2945 340.434 73.7345C340.749 75.6369 340.507 77.6657 340.533 79.592C340.587 83.5358 341.51 93.0643 339.158 96.3183C338.596 97.0965 337.825 97.6076 336.869 97.7505C335.643 97.9338 334.159 97.5022 333.17 96.7715C332.163 96.027 331.626 95.0759 331.387 93.8598C330.235 87.9808 331.013 81.4957 331.014 75.5264C331.015 65.391 330.838 55.2397 330.916 45.107C330.929 43.4545 331.63 40.5395 331.425 39.2211C331.423 39.2072 331.421 39.1933 331.418 39.1794C332.45 38.7068 333.392 38.0027 334.335 37.3748ZM348.775 68.5426C351.167 68.4159 353.15 67.9224 354.819 66.0823C357.435 63.1972 357.472 58.603 357.272 54.9516C357.122 52.2031 356.522 49.4252 354.365 47.5175C352.441 45.8158 350.428 45.6599 347.999 45.625C345.672 45.9126 343.755 46.9472 342.303 48.8033C339.948 51.8126 339.812 56.5832 340.268 60.2033C340.601 62.8537 341.702 65.6192 343.863 67.3077C345.031 68.2205 346.871 68.8118 348.37 68.6156Q348.574 68.5891 348.775 68.5426Z"/>
	<path fill="#F52837" d="M34.9796 59.9523C27.9667 60.3412 11.8565 61.4334 6.58662 57.0669C4.43078 55.2807 3.12693 52.534 2.86823 49.7676C2.62049 47.1185 3.08334 43.9636 4.81616 41.8911C6.0314 40.4376 7.76748 38.9907 9.53352 38.2709C15.2926 35.9237 26.1351 37.441 32.6484 36.8657C32.0681 42.7539 32.549 49.9583 36.4454 54.7032C37.5353 56.0304 39.5876 57.5139 41.3745 57.6975C41.5443 57.715 41.7146 57.6949 41.8814 57.6638C43.3276 57.7282 44.8835 57.897 46.3174 57.6943C49.6594 57.2219 52.6007 55.8248 56.0533 55.8299L56.92 56.2362C57.9383 59.4155 57.4733 64.1928 57.4741 67.5463C57.4752 72.5084 58.142 81.5592 56.3814 86.0419C55.9149 87.2297 55.0195 88.3164 54.1228 89.2091C52.1112 91.2117 49.2224 92.4831 46.3699 92.4691C43.4195 92.4546 40.4005 91.131 38.3411 89.0301Q37.837 88.5146 37.4033 87.9385Q36.9696 87.3624 36.6136 86.7354Q36.2576 86.1083 35.9852 85.4407Q35.7128 84.7731 35.5285 84.076C34.1676 78.9955 34.9352 65.9024 34.9796 59.9523Z"/>
	<path fill="#F52837" d="M92.7288 22.5528C99.9541 22.4587 112.92 21.5173 119.48 23.3771C121.532 23.959 123.504 25.0309 125.038 26.5224C127.991 29.3932 128.945 33.3441 128.988 37.3502C129.029 41.0611 128.397 44.8898 125.708 47.6371C121.877 51.5521 115.364 52.4304 110.15 52.4741C106.296 52.5064 102.276 52.3647 98.4455 51.9097C98.5326 55.3354 99.5654 71.8101 97.7279 73.7374C96.677 74.8396 94.6102 75.0273 93.1615 75.038C92.1904 75.0451 91.1787 75.0247 90.4473 74.2998C86.9535 70.8371 89.2322 53.064 88.0071 47.4855C88.7532 42.9195 87.876 26.7694 89.636 23.8756C90.2158 22.9224 91.7289 22.7813 92.7288 22.5528ZM98.5285 44.0639C103.128 43.2739 115.576 45.4539 118.334 41.4348C118.408 41.3271 118.457 41.2086 118.497 41.085C119.43 39.6205 119.576 36.9064 119.204 35.2472C118.966 34.1882 118.342 33.0327 117.402 32.4317C117.387 32.4226 117.373 32.4142 117.358 32.4055C116.298 31.5244 114.253 31.1478 112.905 31.228C112.044 30.6049 104.506 31.0058 102.888 31.0354Q100.699 30.9524 98.5092 30.916C98.5911 35.2987 98.4857 39.6812 98.5285 44.0639Z"/>
	<path fill="#FBFCFB" fill-opacity="0.019607844" d="M102.888 31.0354C104.506 31.0058 112.044 30.6049 112.905 31.228C112.255 31.3467 111.61 31.4 110.951 31.4377C109.147 31.5411 104.13 32.1445 102.888 31.0354Z"/>
	<path fill="#F52837" d="M243.562 40.1882C244.341 39.7434 245.081 39.2563 245.837 38.7738C250.392 35.8657 256.86 35.8974 261.24 39.2538C262.095 39.9094 263.253 41.6661 264.187 41.8719C264.82 41.1786 265.504 40.5574 266.234 39.9677C269.45 37.3674 273.491 36.3292 277.586 36.7757C280.928 37.14 284.031 38.6235 286.145 41.2746C287.441 42.8985 288.29 44.7975 288.719 46.8257C289.771 51.8018 289.15 57.3016 289.161 62.3722C289.167 65.0672 289.448 67.9674 289.14 70.6325C288.984 71.9856 288.55 73.3736 287.431 74.2379C286.246 75.1536 284.59 75.1768 283.166 74.9829C275.872 73.9899 282.482 52.626 277.765 46.5545C276.988 45.5547 275.97 44.9862 274.713 44.8404C271.689 44.4897 269.224 46.0926 266.972 47.8749C267.066 48.4914 266.38 52.9821 266.324 54.2086C266.036 60.4684 266.776 66.7746 265.805 72.9889C265.372 73.7122 264.751 74.2182 263.973 74.5472C262.724 75.0761 260.57 75.2584 259.271 74.7006C254.657 72.7195 257.918 53.0187 256.01 48.2631C255.476 46.9332 254.742 46.2547 253.449 45.7041C251.533 44.888 249.437 44.518 247.442 45.3447C239.525 48.6268 245.853 66.367 243.108 72.8489C242.724 73.7551 242.037 74.3816 241.126 74.744C239.72 75.3037 237.626 75.1518 236.231 74.5471C235.575 74.2628 234.894 73.7351 234.63 73.0472C233.47 70.0273 233.455 41.5144 234.719 38.6978C235.232 37.5561 236.119 37.2773 237.211 36.8748C237.778 36.7946 238.328 36.8397 238.892 36.9174C241.218 37.2381 242.216 38.4082 243.562 40.1882Z"/>
	<path fill="#F52837" d="M137.193 21.8743C138.329 21.7669 139.843 22.0572 140.862 22.5676C141.488 22.8815 141.942 23.3111 142.164 23.985C142.925 26.2952 143.481 37.2581 142.494 39.1992C148.207 38.1671 150.045 35.3839 156.967 37.2605C159.991 38.0803 162.47 39.9789 164.029 42.7009C164.922 44.2605 165.437 45.9782 165.727 47.7447C166.289 51.1758 166.861 68.3961 166.042 71.3246C165.652 72.7233 164.854 73.8729 163.565 74.5767C162.488 75.1643 161.14 75.462 159.943 75.0967C153.498 73.131 158.302 56.0318 156.114 51.8748C156.196 51.7409 156.269 51.6063 156.327 51.4598C156.662 50.6049 156.473 49.5206 156.124 48.7016C155.452 47.1237 153.972 46.1281 152.426 45.5135C150.734 44.8405 148.978 44.8494 147.306 45.5801C145.686 46.2881 144.082 47.674 143.346 49.2999C141.573 53.2194 142.536 62.5445 142.615 67.0926C142.646 68.9311 142.812 70.9625 142.116 72.7044C141.749 73.6238 141.138 74.3797 140.213 74.7712C138.78 75.3781 136.244 75.0077 134.824 74.4354C133.834 73.5166 133.542 71.47 133.378 70.1823C132.572 63.8346 133.066 57.1406 133.018 50.7434C132.997 47.9503 132.648 45.1852 132.554 42.3977C132.434 38.8551 132.583 35.1933 132.673 31.6425C132.729 29.4417 133.739 25.8726 133.356 23.9232C133.352 23.9055 133.348 23.888 133.345 23.8704C134.602 23.0578 135.768 22.3521 137.193 21.8743Z"/>
	<path fill="#F52837" d="M306.352 36.8748C308.339 36.6373 310.423 36.6078 312.418 36.7655C316.271 37.0702 320.141 38.299 322.716 41.3254Q323.193 41.8905 323.6 42.5081Q324.007 43.1257 324.339 43.7871Q324.67 44.4485 324.921 45.1444Q325.171 45.8403 325.338 46.5609C326.366 50.9445 325.879 55.8656 325.929 60.3434C325.964 63.4674 326.223 66.7116 325.965 69.822C325.831 71.4327 325.473 73.2358 324.168 74.3223C323.321 75.0282 322.184 75.2075 321.113 75.1095C317.592 74.7875 318.397 72.578 316.718 70.5717L316.669 70.5129C316.642 70.7486 316.574 70.9392 316.429 71.1276C314.744 73.3117 310.559 74.7377 307.895 75.0394C303.2 75.5713 299.03 74.0217 295.396 71.1253C295.477 70.7242 293.818 66.7261 293.61 65.9254C293.377 65.0289 293.395 64.1434 293.413 63.2255C293.47 60.3442 294.048 57.6747 296.209 55.613C301.139 50.9088 310.009 51.9889 316.325 52.1226C316.865 51.2346 316.679 49.5334 316.451 48.5331C316.084 46.9199 314.669 45.4867 313.289 44.6273C308.66 41.7447 305.065 46.9872 300.841 47.9497C299.659 48.219 298.537 48.0883 297.503 47.4321C296.519 46.8069 295.742 45.8995 295.501 44.7398C295.289 43.7181 295.582 42.836 296.149 41.9798C298.294 38.7411 302.824 37.6122 306.352 36.8748ZM304.68 66.8582C306.713 67.2855 309.786 68.0235 311.707 66.826C311.803 66.7664 311.847 66.7185 311.907 66.6249C313.692 66.0785 315.074 65.009 315.955 63.341C316.498 62.3127 316.815 60.806 316.459 59.6724C316.415 59.5337 316.361 59.4022 316.303 59.2688C316.29 59.2387 316.278 59.2083 316.265 59.1783C316.242 59.1259 316.216 59.0764 316.187 59.0267C312.815 58.9378 309.247 58.6427 305.906 59.1249C304.591 59.9062 303.33 60.8234 302.766 62.3084C302.641 63.3967 303.223 64.9216 303.899 65.7654C304.134 66.0592 304.596 66.5004 304.68 66.8582Z"/>
	<path fill="#F52837" d="M183.015 36.8746C185.113 36.6045 187.34 36.625 189.442 36.8407C193.216 37.2279 197.309 38.4463 199.782 41.5054C203.912 46.6162 202.752 54.8693 202.786 60.9978C202.803 64.1025 203.122 67.3098 202.796 70.4021C202.639 71.8874 202.337 73.346 201.101 74.3235C200.256 74.9918 198.893 75.3778 197.82 75.2475C195.308 74.9426 194.798 72.0382 193.484 70.3895C193.389 70.7704 193.223 71.0491 192.966 71.3425C190.703 73.9302 187.481 74.7704 184.154 74.9896C179.732 75.2809 175.751 74.0532 172.421 71.1258C172.535 70.393 170.511 66.4384 170.465 64.6479C170.384 61.5496 170.797 58.1553 173.029 55.8163C177.839 50.777 187.113 52.2191 193.432 52.075C193.794 51.4921 193.543 49.717 193.395 49.0811C193.011 47.4375 191.495 45.39 190.061 44.5101C185.94 41.9814 181.839 47.0367 177.98 47.9423C176.656 48.2531 175.325 48.1397 174.163 47.3955C173.247 46.8087 172.473 45.9324 172.247 44.8463C172.054 43.926 172.247 43.026 172.762 42.2438C174.943 38.9308 179.375 37.645 183.015 36.8746ZM187.795 67.0741C189.808 66.5456 191.822 65.2621 192.886 63.4322C193.554 62.2826 193.791 60.685 193.461 59.3868C193.423 59.2364 193.356 59.0994 193.277 58.9667C190.25 58.9225 187.216 58.8364 184.189 58.8748C182.66 59.2524 180.988 59.9639 180.145 61.3786C179.675 62.1688 179.567 63.1053 179.798 63.9907C180.128 65.2563 181.051 66.2458 182.166 66.8802C183.757 67.7851 185.808 67.7276 187.54 67.2432C187.639 67.2154 187.723 67.1448 187.795 67.0741Z"/>
	<path fill="#2AB54A" d="M391.732 37.6249C393.009 37.3831 394.458 37.245 395.639 37.9131C400.443 40.6302 396.921 57.6856 398.465 63.4107C398.952 65.2141 399.911 66.8046 401.576 67.7466C403.328 68.7378 406.043 68.818 407.952 68.2581C416.964 65.6142 410.584 44.4029 413.493 39.2141C413.961 38.3783 414.723 37.8098 415.646 37.5639C416.761 37.2668 418.584 37.3326 419.599 37.9504C420.613 38.5674 421.379 39.7328 421.635 40.8855C422.065 42.8177 422.264 51.3659 421.288 52.8696C421.552 53.2529 421.648 53.62 421.679 54.0823C421.922 57.5952 422.761 73.4811 420.777 75.7638C420.765 75.7881 420.754 75.8127 420.741 75.8367C420.257 76.7587 418.668 77.1119 417.738 77.3905C415.433 75.9339 414.313 74.7092 412.696 72.5425C412.231 73.4409 411.46 74.1105 410.647 74.6915C407.607 76.8651 403.602 77.3205 399.987 76.7112C396.715 76.1596 393.789 74.6211 391.848 71.876C390.609 70.1227 389.832 68.1072 389.436 66.004C388.727 62.2453 388.521 44.4163 389.147 40.7899C389.437 39.1108 390.419 38.5468 391.732 37.6249Z"/>
	<path fill="#2AB54A" d="M439.556 37.3749C444.202 36.8296 450.445 37.7615 454.365 40.4492C455.832 41.4554 457.632 43.2241 457.944 45.0407C458.058 45.6998 457.919 46.3148 457.526 46.8565C456.404 48.3997 454.118 48.8396 452.355 49.1272C452.31 49.0727 452.269 49.0274 452.205 48.9955C448.801 47.3071 447.29 44.2916 443.002 44.374C440.824 44.4159 438.323 45.294 436.801 46.8936C436.217 47.5072 435.779 48.2664 435.818 49.135C435.998 53.0632 447.988 53.2624 451.035 54.0383C453.136 54.5732 455.168 55.4454 456.771 56.9378C458.75 58.7809 459.597 61.3617 459.69 64.0169C459.8 67.1347 458.877 70.0717 456.722 72.3662C453.793 75.4851 449.851 76.6549 445.687 76.7827C443.082 77.3179 439.62 76.8596 437.04 76.3145C433.968 75.6654 429.545 73.8614 427.787 71.0987C427.262 70.273 427.054 69.2662 427.285 68.3079C427.811 66.1223 428.975 65.8976 430.683 64.8514C434.653 65.4553 437.441 68.314 441.215 69.1174C443.19 69.5377 446.245 69.4346 447.968 68.3081C449.215 67.4925 450.684 66.1129 450.986 64.616C450.089 60.2873 435.716 60.3558 431.146 57.2547C429.183 55.9232 427.988 53.9036 427.556 51.5903C427.031 48.7732 427.486 45.4239 429.13 43.0317C431.503 39.5796 435.612 38.1088 439.556 37.3749Z"/>
	<path fill="#2AB54A" d="M375.766 22.1249C376.969 22.0063 378.136 22.1951 379.215 22.7558C380.171 23.2528 380.984 24.0807 381.309 25.1261C381.791 26.6763 381.843 28.6442 381.895 30.2617C382.075 35.8469 381.737 41.5167 381.757 47.1153C381.781 53.8826 382.175 60.9051 381.697 67.6542C381.671 68.0218 381.541 68.3671 381.373 68.6927C381.682 68.8198 381.96 68.9849 382.241 69.1635C383.568 70.0079 384.721 71.1544 385.056 72.7497C385.234 73.5976 385.103 74.4191 384.614 75.1413C383.812 76.3233 382.37 76.655 381.053 76.8927C379.958 77.1482 378.369 76.7657 377.331 76.3346C375.488 75.5684 373.791 73.9733 373.039 72.1104C372.455 70.6607 372.34 68.8126 372.246 67.2663C371.947 62.3108 371.713 26.5644 372.678 24.3492C373.202 23.148 374.625 22.5741 375.766 22.1249Z"/>
	<path fill="#F52837" d="M217.227 40.6706C219.733 39.6006 221.272 37.434 224.108 36.8594C225.742 36.5285 227.681 36.5265 229.107 37.4902C229.983 38.0823 230.441 38.9499 230.634 39.9708C231.678 45.4765 222.457 45.4026 219.524 48.8798C216.74 52.1802 219.918 59.3347 218.036 62.1215C218.156 62.312 218.266 62.5252 218.337 62.7394C218.968 64.6509 218.558 71.5604 217.741 73.187C217.736 73.2032 217.734 73.22 217.728 73.2355C217.482 73.8307 216.3 74.4611 215.734 74.6666C213.582 75.4468 211.458 74.7691 209.487 73.8699C209.816 73.1092 208.972 66.4568 208.953 64.9406C208.871 58.3501 208.715 51.2155 208.884 44.6681C208.941 42.4521 209.38 40.2606 209.415 38.0527C210.251 37.7351 211.067 37.2694 211.871 36.8747C213.298 36.7118 214.515 36.8896 215.853 37.3801C216.073 37.5306 216.221 37.7111 216.375 37.9257C216.954 38.7306 217.387 39.661 217.227 40.6706Z"/>
	<path fill="#FBFCFB" fill-opacity="0.98823529" d="M32.6484 36.8657C33.1689 37.0143 34.0285 37.4091 34.5411 37.4072C34.5472 37.4211 34.5535 37.435 34.5594 37.449C34.9775 38.437 34.8704 39.9865 34.9321 41.0732C35.2746 47.1061 35.757 52.9721 42.0883 55.6097C42.8912 55.9442 43.7738 56.0798 44.6286 56.2161C43.5989 56.2711 42.3808 56.4222 41.3649 56.2816C40.8429 56.2093 39.8967 55.7768 39.4163 55.9007C39.8021 56.6995 41.0952 57.2865 41.8814 57.6638C41.7146 57.6949 41.5443 57.715 41.3745 57.6975C39.5876 57.5139 37.5353 56.0304 36.4454 54.7032C32.549 49.9583 32.0681 42.7539 32.6484 36.8657Z"/>
</svg>
